<?xml version="1.0" encoding="UTF-8" standalone="no" ?>
<!DOCTYPE svg PUBLIC "-//W3C//DTD SVG 1.1//EN" "http://www.w3.org/Graphics/SVG/1.1/DTD/svg11.dtd">
<svg xmlns="http://www.w3.org/2000/svg" xmlns:xlink="http://www.w3.org/1999/xlink" version="1.1" width="1080" height="1080" viewBox="0 0 1080 1080" xml:space="preserve">
<desc>Created with Fabric.js 4.6.0</desc>
<defs>
</defs>
<g transform="matrix(1.5 0 0 1.5 539.95 540.05)" id="-DwLc3z8pbJ1UGx-LFhDm"  >
<g style="" vector-effect="non-scaling-stroke"   >
		<g transform="matrix(1 0 0 -1 83.52 10.22)" id="12pEwjzTuBayEXtvyfV_X" clip-path="url(#CLIPPATH_5)"  >
<clipPath id="CLIPPATH_5" >
	<rect transform="matrix(1 0 0 -1 -83.52 10.22)" id="clip0" x="-359.5" y="-359.5" rx="0" ry="0" width="719" height="719" />
</clipPath>
<path style="stroke: none; stroke-width: 1; stroke-dasharray: none; stroke-linecap: butt; stroke-dashoffset: 0; stroke-linejoin: miter; stroke-miterlimit: 4; fill: rgb(62,63,58); fill-rule: nonzero; opacity: 1;" vector-effect="non-scaling-stroke"  transform=" translate(-418.84, -304.54)" d="M 372.236 571.929 C 306.865 569.381 243.804 542.628 198.897 498.597 C 192.846 492.705 188.148 487.529 188.387 487.211 C 188.626 486.812 192.368 486.494 196.747 486.494 L 204.63 486.494 L 212.433 493.342 C 253.279 529.49 300.894 550.909 355.117 557.517 C 366.184 558.871 399.944 558.871 411.251 557.438 C 457.83 551.864 501.782 534.108 537.452 506.559 C 593.188 463.483 627.904 401.935 635.866 332.026 C 637.458 317.694 637.06 282.182 635.07 269.443 C 622.967 190.218 578.777 124.609 509.983 84.0018 C 486.892 70.3864 453.61 58.3634 426.379 53.8249 C 410.932 51.2769 401.935 50.5603 382.985 50.5603 C 358.7 50.5603 342.696 52.3917 322.073 57.4079 C 281.625 67.3607 242.769 88.0626 211.716 116.329 L 204.789 122.619 L 196.429 122.619 C 191.811 122.619 187.83 122.3 187.591 121.902 C 186.795 120.628 207.974 101.121 220.156 91.8845 C 281.307 45.4645 358.302 27.2309 433.147 41.4834 C 475.825 49.6049 515.079 67.5996 548.52 94.2731 C 560.862 104.067 581.723 124.37 589.924 134.562 C 619.543 171.348 639.051 213.946 646.854 258.773 C 649.561 274.379 650.039 281.227 650.118 303.76 C 650.118 330.911 648.924 342.855 644.067 364.273 C 635.707 401.218 616.04 441.826 592.392 471.366 C 582.837 483.229 563.489 502.737 551.864 512.212 C 507.594 548.202 454.406 568.665 397.476 571.69 C 389.753 572.088 382.109 572.407 380.596 572.327 C 379.083 572.248 375.341 572.088 372.236 571.929 Z" stroke-linecap="round" />
</g>
		<g transform="matrix(1 0 0 -1 -208.05 10.27)" id="0lVwfEOLx0sIDD3tCC9FG" clip-path="url(#CLIPPATH_6)"  >
<clipPath id="CLIPPATH_6" >
	<rect transform="matrix(1 0 0 -1 208.05 10.27)" id="clip0" x="-359.5" y="-359.5" rx="0" ry="0" width="719" height="719" />
</clipPath>
<path style="stroke: none; stroke-width: 1; stroke-dasharray: none; stroke-linecap: butt; stroke-dashoffset: 0; stroke-linejoin: miter; stroke-miterlimit: 4; fill: rgb(62,63,58); fill-rule: nonzero; opacity: 1;" vector-effect="non-scaling-stroke"  transform=" translate(-134.56, -304.5)" d="M 142.126 450.584 C 114.338 447.718 90.292 438.482 69.7494 422.876 C 52.312 409.658 38.5373 393.097 29.4604 374.704 C 18.6317 352.648 14.3321 332.584 14.3321 303.76 C 14.3321 257.022 27.9475 222.306 56.8505 195.473 C 83.8426 170.313 119.115 157.653 161.873 157.653 C 197.146 157.653 225.65 165.137 249.458 180.425 L 254.792 183.928 L 254.633 253.757 L 254.394 323.666 L 204.63 323.666 L 154.866 323.666 L 154.866 304.955 L 154.866 286.243 L 183.371 286.004 L 211.796 285.845 L 211.796 246.591 L 211.796 207.417 L 205.586 205.267 C 187.67 199.056 168.243 196.907 148.257 199.056 C 108.526 203.356 79.543 225.332 66.883 260.605 C 57.6468 286.323 57.6468 321.755 66.9626 347.154 C 76.2784 372.793 96.9007 394.052 121.186 403.209 C 134.642 408.225 145.63 410.056 162.749 410.056 C 189.104 410.056 215.618 403.368 235.842 391.664 C 238.709 389.912 241.734 388.558 242.371 388.558 C 243.486 388.558 243.645 391.027 243.645 409.897 C 243.645 434.262 244.282 432.112 236.081 436.093 C 221.43 443.259 204.152 448.036 183.928 450.345 C 173.259 451.54 152.477 451.699 142.126 450.584 Z" stroke-linecap="round" />
</g>
		<g transform="matrix(1 0 0 -1 88.02 10.2)" id="qWSLSvp6F-yHtL4Ht6uvT" clip-path="url(#CLIPPATH_7)"  >
<clipPath id="CLIPPATH_7" >
	<rect transform="matrix(1 0 0 -1 -88.02 10.2)" id="clip0" x="-359.5" y="-359.5" rx="0" ry="0" width="719" height="719" />
</clipPath>
<path style="stroke: none; stroke-width: 1; stroke-dasharray: none; stroke-linecap: butt; stroke-dashoffset: 0; stroke-linejoin: miter; stroke-miterlimit: 4; fill: rgb(62,63,58); fill-rule: nonzero; opacity: 1;" vector-effect="non-scaling-stroke"  transform=" translate(-423.22, -304.56)" d="M 430.758 450.584 C 403.687 447.877 378.685 438.402 358.7 423.274 C 349.304 416.187 336.565 403.527 330.195 394.928 C 317.057 377.252 307.502 352.808 304.079 328.045 C 302.725 318.331 302.645 289.269 303.999 279.873 C 309.015 244.362 320.64 219.758 342.536 198.101 C 369.449 171.427 406.473 157.653 451.062 157.653 C 472.082 157.653 489.281 160.201 506.798 165.774 C 515.716 168.641 536.417 178.673 540.637 182.176 L 543.424 184.565 L 543.424 254.076 L 543.424 323.666 L 493.262 323.666 L 443.1 323.666 L 443.1 304.955 L 443.1 286.243 L 472.003 286.004 L 500.826 285.845 L 500.826 246.591 L 500.826 207.337 L 494.297 205.267 C 464.996 195.792 436.332 195.872 409.499 205.426 C 388.16 212.99 371.599 227.561 361.088 247.785 C 352.171 264.984 348.747 280.192 348.747 303.362 C 348.747 336.883 357.028 360.053 376.296 380.516 C 395.406 400.82 419.054 410.056 451.858 410.056 C 476.621 410.056 497.641 405.12 519.458 394.132 C 525.509 391.027 530.844 388.558 531.162 388.558 C 532.038 388.558 532.118 430.758 531.242 432.032 C 530.446 433.306 518.9 438.959 512.371 441.348 C 489.52 449.708 457.671 453.291 430.758 450.584 Z" stroke-linecap="round" />
</g>
</g>
</g>
</svg>