<?xml version="1.0" encoding="UTF-8" standalone="no" ?>
<!DOCTYPE svg PUBLIC "-//W3C//DTD SVG 1.1//EN" "http://www.w3.org/Graphics/SVG/1.1/DTD/svg11.dtd">
<svg xmlns="http://www.w3.org/2000/svg" xmlns:xlink="http://www.w3.org/1999/xlink" version="1.1" width="1080" height="1080" viewBox="0 0 1080 1080" xml:space="preserve">
<desc>Created with Fabric.js 4.6.0</desc>
<defs>
</defs>
<g transform="matrix(0.92 0 0 0.92 572.19 540)" id="nJC2qO8B1aHiG5X_A2DAz"  >
<g style="" vector-effect="non-scaling-stroke"   >
		<g transform="matrix(0.13 0 0 -0.13 101.38 16.69)" id="FdJhM4eKBpIuGsQa8e8gP"  >
<path style="stroke: none; stroke-width: 1; stroke-dasharray: none; stroke-linecap: butt; stroke-dashoffset: 0; stroke-linejoin: miter; stroke-miterlimit: 4; fill: rgb(0,0,0); fill-rule: nonzero; opacity: 1;" vector-effect="non-scaling-stroke"  transform=" translate(-5260.36, -3824.84)" d="M 4675 7183 C 3854 7151 3062 6815 2498 6262 C 2422 6188 2363 6123 2366 6119 C 2369 6114 2416 6110 2471 6110 L 2570 6110 L 2668 6196 C 3181 6650 3779 6919 4460 7002 C 4599 7019 5023 7019 5165 7001 C 5750 6931 6302 6708 6750 6362 C 7450 5821 7886 5048 7986 4170 C 8006 3990 8001 3544 7976 3384 C 7824 2389 7269 1565 6405 1055 C 6115 884 5697 733 5355 676 C 5161 644 5048 635 4810 635 C 4505 635 4304 658 4045 721 C 3537 846 3049 1106 2659 1461 L 2572 1540 L 2467 1540 C 2409 1540 2359 1536 2356 1531 C 2346 1515 2612 1270 2765 1154 C 3533 571 4500 342 5440 521 C 5976 623 6469 849 6889 1184 C 7044 1307 7306 1562 7409 1690 C 7781 2152 8026 2687 8124 3250 C 8158 3446 8164 3532 8165 3815 C 8165 4156 8150 4306 8089 4575 C 7984 5039 7737 5549 7440 5920 C 7320 6069 7077 6314 6931 6433 C 6375 6885 5707 7142 4992 7180 C 4895 7185 4799 7189 4780 7188 C 4761 7187 4714 7185 4675 7183 z" stroke-linecap="round" />
</g>
		<g transform="matrix(0.13 0 0 -0.13 -374.67 16.77)" id="svK_tm-hYT2X-LkkaVLtB"  >
<path style="stroke: none; stroke-width: 1; stroke-dasharray: none; stroke-linecap: butt; stroke-dashoffset: 0; stroke-linejoin: miter; stroke-miterlimit: 4; fill: rgb(0,0,0); fill-rule: nonzero; opacity: 1;" vector-effect="non-scaling-stroke"  transform=" translate(-1690, -3824.23)" d="M 1785 5659 C 1436 5623 1134 5507 876 5311 C 657 5145 484 4937 370 4706 C 234 4429 180 4177 180 3815 C 180 3228 351 2792 714 2455 C 1053 2139 1496 1980 2033 1980 C 2476 1980 2834 2074 3133 2266 L 3200 2310 L 3198 3187 L 3195 4065 L 2570 4065 L 1945 4065 L 1945 3830 L 1945 3595 L 2303 3592 L 2660 3590 L 2660 3097 L 2660 2605 L 2582 2578 C 2357 2500 2113 2473 1862 2500 C 1363 2554 999 2830 840 3273 C 724 3596 724 4041 841 4360 C 958 4682 1217 4949 1522 5064 C 1691 5127 1829 5150 2044 5150 C 2375 5150 2708 5066 2962 4919 C 2998 4897 3036 4880 3044 4880 C 3058 4880 3060 4911 3060 5148 C 3060 5454 3068 5427 2965 5477 C 2781 5567 2564 5627 2310 5656 C 2176 5671 1915 5673 1785 5659 z" stroke-linecap="round" />
</g>
		<g transform="matrix(0.13 0 0 -0.13 108.72 16.66)" id="npdhYhTBBwUCQD5cr52eu"  >
<path style="stroke: none; stroke-width: 1; stroke-dasharray: none; stroke-linecap: butt; stroke-dashoffset: 0; stroke-linejoin: miter; stroke-miterlimit: 4; fill: rgb(0,0,0); fill-rule: nonzero; opacity: 1;" vector-effect="non-scaling-stroke"  transform=" translate(-5315.37, -3825.09)" d="M 5410 5659 C 5070 5625 4756 5506 4505 5316 C 4387 5227 4227 5068 4147 4960 C 3982 4738 3862 4431 3819 4120 C 3802 3998 3801 3633 3818 3515 C 3881 3069 4027 2760 4302 2488 C 4640 2153 5105 1980 5665 1980 C 5929 1980 6145 2012 6365 2082 C 6477 2118 6737 2244 6790 2288 L 6825 2318 L 6825 3191 L 6825 4065 L 6195 4065 L 5565 4065 L 5565 3830 L 5565 3595 L 5928 3592 L 6290 3590 L 6290 3097 L 6290 2604 L 6208 2578 C 5840 2459 5480 2460 5143 2580 C 4875 2675 4667 2858 4535 3112 C 4423 3328 4380 3519 4380 3810 C 4380 4231 4484 4522 4726 4779 C 4966 5034 5263 5150 5675 5150 C 5986 5150 6250 5088 6524 4950 C 6600 4911 6667 4880 6671 4880 C 6682 4880 6683 5410 6672 5426 C 6662 5442 6517 5513 6435 5543 C 6148 5648 5748 5693 5410 5659 z" stroke-linecap="round" />
</g>
</g>
</g>
</svg>