<?xml version="1.0" standalone="no"?>
<!DOCTYPE svg PUBLIC "-//W3C//DTD SVG 20010904//EN"
 "http://www.w3.org/TR/2001/REC-SVG-20010904/DTD/svg10.dtd">
<svg version="1.0" xmlns="http://www.w3.org/2000/svg"
 width="1045.000000pt" height="832.000000pt" viewBox="0 0 1045.000000 832.000000"
 preserveAspectRatio="xMidYMid meet">

<g transform="translate(0.000000,832.000000) scale(0.100000,-0.100000)"
fill="#000000" stroke="none">
<path d="M5145 6213 c-88 -2 -164 -8 -169 -13 -7 -7 86 -10 265 -10 162 0 268
4 259 9 -21 13 -167 18 -355 14z"/>
<path d="M4785 6170 c-14 -6 0 -9 45 -9 45 0 59 3 45 9 -11 5 -31 9 -45 9 -14
0 -34 -4 -45 -9z"/>
<path d="M5536 6172 c-7 -12 40 -22 104 -22 29 0 52 -6 60 -15 6 -7 33 -17 58
-21 26 -4 56 -13 67 -20 11 -8 29 -14 40 -14 11 0 38 -9 60 -20 22 -11 47 -20
57 -20 10 0 18 -4 18 -10 0 -5 18 -14 40 -20 22 -6 40 -15 40 -20 0 -4 13 -11
29 -15 16 -3 35 -13 42 -21 6 -8 17 -14 24 -14 6 0 22 -9 35 -20 13 -11 27
-20 32 -20 8 0 64 -36 78 -50 3 -3 25 -19 50 -35 24 -17 52 -37 61 -45 151
-134 156 -140 124 -140 -9 0 -18 7 -21 15 -4 8 -12 15 -20 15 -7 0 -17 6 -21
13 -4 7 -19 18 -33 25 -28 13 -42 22 -112 70 -26 17 -54 32 -62 32 -8 0 -17 4
-20 9 -3 4 -32 21 -63 36 -32 15 -69 33 -83 40 -14 7 -38 16 -55 19 -16 4 -33
12 -36 18 -3 5 -25 12 -47 15 -23 3 -47 12 -53 19 -13 16 -109 20 -109 5 0
-13 26 -21 70 -21 23 0 40 -5 43 -14 3 -7 20 -16 39 -20 32 -6 67 -20 140 -57
20 -11 44 -19 52 -19 9 0 16 -3 16 -8 0 -4 21 -17 48 -29 26 -12 85 -47 131
-77 46 -31 85 -56 88 -56 15 0 166 -132 267 -232 99 -100 122 -119 145 -116
39 4 30 29 -51 133 -166 213 -474 469 -668 556 -14 6 -32 15 -40 20 -8 5 -22
12 -30 15 -8 3 -32 14 -52 24 -20 11 -47 20 -58 20 -12 0 -28 7 -36 15 -9 8
-28 15 -42 15 -15 0 -37 7 -50 15 -12 9 -45 19 -74 22 -29 3 -56 11 -60 17 -9
14 -154 21 -162 8z"/>
<path d="M4650 6130 c0 -5 13 -10 29 -10 17 0 33 5 36 10 4 6 -8 10 -29 10
-20 0 -36 -4 -36 -10z"/>
<path d="M4553 6093 c9 -2 25 -2 35 0 9 3 1 5 -18 5 -19 0 -27 -2 -17 -5z"/>
<path d="M4465 6060 c3 -5 10 -10 16 -10 5 0 9 5 9 10 0 6 -7 10 -16 10 -8 0
-12 -4 -9 -10z"/>
<path d="M4921 6025 c-25 -8 -69 -17 -99 -21 -30 -4 -67 -13 -81 -20 -14 -8
-40 -14 -57 -14 -16 0 -39 -7 -50 -15 -10 -8 -33 -15 -50 -15 -17 0 -43 -9
-57 -20 -14 -11 -39 -20 -56 -20 -19 0 -34 -6 -37 -15 -4 -8 -15 -15 -26 -15
-16 0 -37 -9 -118 -51 -8 -5 -43 -22 -77 -39 -35 -18 -63 -35 -63 -40 0 -5
-13 -11 -30 -15 -16 -4 -30 -11 -30 -16 0 -5 -11 -14 -25 -19 -14 -5 -25 -14
-25 -19 0 -5 -13 -14 -30 -20 -16 -5 -30 -15 -30 -20 0 -6 -5 -11 -11 -11 -7
0 -26 -15 -43 -32 -36 -37 -91 -78 -104 -78 -6 0 -12 -9 -15 -20 -3 -11 -12
-20 -21 -20 -9 0 -16 -7 -16 -15 0 -8 -7 -15 -15 -15 -8 0 -15 -6 -15 -14 0
-8 -9 -18 -20 -21 -11 -3 -20 -10 -20 -15 0 -26 25 -12 96 55 43 41 82 75 86
75 9 0 112 81 121 97 4 7 12 13 18 13 10 0 69 39 79 51 6 8 105 64 147 84 17
8 34 19 38 25 3 5 16 10 28 10 13 0 30 9 40 20 9 11 28 20 41 20 13 0 29 7 36
15 7 8 25 15 39 15 15 0 36 7 47 15 10 8 40 17 66 21 26 4 53 13 59 20 7 8 30
14 56 14 24 0 60 7 81 16 52 22 289 35 504 27 139 -5 181 -3 193 7 9 7 49 15
91 18 41 2 77 8 80 13 9 15 -69 22 -165 14 -106 -9 -159 -9 -371 -1 -111 4
-155 2 -189 -9z"/>
<path d="M4378 6023 c6 -2 18 -2 25 0 6 3 1 5 -13 5 -14 0 -19 -2 -12 -5z"/>
<path d="M5680 6001 c-13 -9 -13 -10 0 -15 58 -19 154 -12 121 8 -19 12 -106
17 -121 7z"/>
<path d="M5496 5961 c-7 -11 42 -21 99 -21 28 0 45 -5 48 -14 3 -8 27 -18 54
-22 26 -4 57 -13 68 -20 11 -8 27 -14 37 -14 10 0 35 -9 55 -20 21 -11 45 -20
55 -20 9 0 18 -4 20 -8 2 -5 32 -23 68 -41 36 -17 83 -42 105 -56 22 -13 47
-27 55 -31 8 -4 25 -15 36 -23 12 -9 32 -23 44 -31 102 -67 273 -224 374 -342
27 -32 55 -58 62 -58 22 0 25 18 7 38 -10 10 -37 41 -60 69 -61 71 -178 185
-248 239 -33 25 -62 49 -65 52 -7 10 -68 52 -75 52 -3 0 -27 15 -53 33 -26 18
-72 45 -102 60 -74 38 -79 40 -127 65 -23 12 -49 22 -58 22 -9 0 -26 6 -38 14
-12 8 -39 17 -59 20 -20 4 -38 11 -40 16 -2 6 -28 13 -58 17 -30 3 -59 12 -63
19 -9 16 -132 20 -141 5z"/>
<path d="M4238 5953 c7 -3 16 -2 19 1 4 3 -2 6 -13 5 -11 0 -14 -3 -6 -6z"/>
<path d="M3670 5360 c0 -5 5 -10 10 -10 6 0 10 5 10 10 0 6 -4 10 -10 10 -5 0
-10 -4 -10 -10z"/>
<path d="M3531 5294 c0 -11 3 -14 6 -6 3 7 2 16 -1 19 -3 4 -6 -2 -5 -13z"/>
<path d="M3665 5300 c-3 -5 -1 -10 4 -10 6 0 11 5 11 10 0 6 -2 10 -4 10 -3 0
-8 -4 -11 -10z"/>
<path d="M3618 5273 c-10 -3 -18 -10 -18 -18 0 -7 -10 -20 -22 -28 l-23 -16
26 0 c19 -1 28 5 32 19 3 11 12 20 21 20 9 0 16 4 16 9 0 13 -12 18 -32 14z"/>
<path d="M3461 5184 c0 -11 3 -14 6 -6 3 7 2 16 -1 19 -3 4 -6 -2 -5 -13z"/>
<path d="M3530 5180 c0 -5 5 -10 10 -10 6 0 10 5 10 10 0 6 -4 10 -10 10 -5 0
-10 -4 -10 -10z"/>
<path d="M2741 5149 c-103 -46 -170 -137 -215 -291 -46 -156 -58 -533 -31
-933 27 -398 69 -484 275 -551 63 -21 66 -21 133 -3 38 9 77 25 86 33 24 22
53 20 74 -5 11 -12 27 -19 40 -17 20 3 22 9 25 78 2 41 -4 106 -12 145 -8 38
-18 113 -22 166 -8 127 -21 145 -101 142 -87 -3 -122 -12 -133 -34 -17 -31 -3
-39 64 -39 50 0 67 -4 81 -19 20 -23 45 -143 45 -221 0 -47 -5 -61 -32 -94
-81 -98 -247 -101 -333 -5 -115 127 -144 319 -126 825 13 363 16 408 41 519
42 190 119 277 231 262 52 -7 79 1 79 24 0 42 -94 52 -169 18z"/>
<path d="M6836 5148 c-27 -12 -67 -38 -87 -58 -43 -39 -105 -153 -115 -208 -4
-21 -11 -45 -16 -55 -18 -36 -38 -278 -38 -477 1 -265 24 -623 48 -720 37
-151 90 -207 242 -256 l65 -21 70 19 c39 11 77 26 86 34 22 20 52 17 72 -7 11
-12 27 -19 40 -17 20 3 22 10 25 72 2 39 -4 104 -12 145 -9 42 -18 119 -22
172 -9 128 -21 145 -101 142 -87 -3 -122 -12 -133 -34 -17 -31 -3 -39 65 -39
70 0 91 -12 101 -58 3 -15 9 -46 15 -69 5 -23 9 -70 9 -105 0 -56 -4 -68 -32
-102 -85 -103 -255 -101 -340 6 -53 67 -64 88 -86 168 -37 134 -45 294 -33
656 12 351 14 376 38 498 38 191 121 288 234 273 52 -7 79 1 79 24 0 43 -94
52 -174 17z"/>
<path d="M3560 5149 c0 -5 5 -7 10 -4 6 3 10 8 10 11 0 2 -4 4 -10 4 -5 0 -10
-5 -10 -11z"/>
<path d="M3425 5121 c-3 -5 -1 -12 5 -16 5 -3 10 1 10 9 0 18 -6 21 -15 7z"/>
<path d="M3495 5120 c-4 -6 5 -10 20 -10 15 0 24 4 20 10 -3 6 -12 10 -20 10
-8 0 -17 -4 -20 -10z"/>
<path d="M3461 5074 c0 -11 3 -14 6 -6 3 7 2 16 -1 19 -3 4 -6 -2 -5 -13z"/>
<path d="M3390 5048 c0 -29 17 -48 42 -48 25 0 23 7 -12 42 -30 29 -30 29 -30
6z"/>
<path d="M3357 4983 c-4 -3 -7 -19 -7 -33 0 -15 -7 -33 -15 -40 -8 -7 -18 -28
-21 -49 -4 -20 -13 -45 -20 -56 -6 -11 -15 -40 -19 -65 -4 -25 -14 -54 -21
-65 -8 -11 -14 -40 -14 -65 0 -25 -7 -55 -15 -67 -8 -12 -19 -61 -25 -110 -5
-48 -14 -106 -20 -128 -5 -22 -10 -97 -10 -166 l0 -126 35 -44 c32 -41 35 -49
35 -114 0 -73 12 -111 24 -80 13 35 6 458 -9 530 -16 78 -19 163 -6 184 12 19
21 1 28 -59 3 -27 10 -47 14 -44 12 7 11 131 0 139 -16 9 -24 91 -12 114 18
32 27 26 38 -26 l10 -48 2 48 c0 26 -3 47 -9 47 -16 0 -12 86 5 100 8 7 15 28
15 47 0 21 6 36 15 39 9 4 15 19 15 41 0 26 5 36 20 40 11 3 20 9 20 12 0 13
-46 51 -53 44z"/>
<path d="M7055 4960 c-4 -11 2 -38 13 -63 11 -23 29 -76 41 -117 12 -41 27
-88 33 -105 6 -16 15 -64 20 -105 5 -41 15 -81 21 -88 6 -8 12 -94 15 -223 3
-148 8 -209 16 -206 7 2 13 56 17 148 8 176 7 169 18 169 4 0 11 -82 15 -182
7 -176 17 -232 32 -174 10 42 0 352 -12 367 -6 8 -14 47 -18 87 -3 41 -13 86
-21 102 -8 16 -15 42 -15 57 0 15 -6 40 -14 54 -7 14 -16 39 -20 55 -4 16 -13
43 -21 59 -7 17 -23 55 -36 85 -37 92 -70 124 -84 80z"/>
<path d="M5061 4928 c-9 -14 -9 -87 0 -311 15 -374 15 -366 -18 -396 -25 -22
-33 -23 -108 -18 -45 2 -92 10 -104 16 l-22 12 2 322 c0 177 -2 330 -6 339 -8
21 -43 34 -57 20 -6 -6 -9 -107 -8 -263 1 -140 3 -469 3 -732 2 -461 3 -479
21 -493 30 -21 45 -17 53 16 4 16 4 175 -1 354 -5 178 -6 332 -2 342 6 14 16
16 79 9 39 -4 88 -7 108 -6 68 1 67 5 79 -379 7 -224 15 -349 22 -357 6 -8 23
-13 37 -11 l26 3 -3 320 c-2 176 -7 392 -13 480 -5 88 -12 286 -15 440 -4 154
-11 285 -16 291 -16 21 -44 22 -57 2z"/>
<path d="M7569 4931 c-53 -41 -82 -162 -105 -441 -23 -272 -7 -680 31 -817 8
-28 15 -59 15 -68 0 -32 60 -156 93 -193 50 -54 138 -68 201 -31 96 56 149
196 167 444 12 156 5 672 -10 745 -40 190 -111 320 -176 320 -18 0 -120 31
-176 54 -9 4 -26 -2 -40 -13z m201 -101 c84 -60 106 -127 121 -365 13 -208 13
-660 1 -735 -26 -154 -65 -248 -120 -285 -44 -30 -57 -31 -98 -6 -32 20 -94
129 -94 167 0 10 -7 40 -14 66 -17 54 -34 258 -38 443 -6 250 36 718 65 738
23 16 145 0 177 -23z"/>
<path d="M3625 4916 c-15 -15 -25 -40 -29 -67 -3 -24 -10 -84 -15 -134 -11
-95 -30 -207 -49 -290 -29 -128 -42 -194 -47 -245 -4 -30 -13 -86 -20 -125 -8
-38 -19 -99 -25 -135 -28 -177 -40 -246 -49 -274 -5 -17 -12 -51 -16 -76 -3
-25 -12 -64 -20 -86 -13 -40 -11 -84 5 -84 5 0 15 -3 23 -6 18 -7 54 68 63
130 6 43 32 178 41 209 4 16 15 17 131 11 70 -4 131 -11 137 -16 14 -13 33
-111 40 -208 3 -47 8 -95 11 -106 5 -29 43 -38 67 -16 16 14 18 25 12 62 -20
139 -31 250 -27 289 2 24 -3 78 -12 120 -36 167 -46 221 -61 341 -9 69 -20
188 -25 265 -5 77 -14 174 -20 215 -5 41 -10 109 -10 151 0 44 -5 80 -12 87
-20 20 -67 14 -93 -12z m66 -338 c5 -68 13 -145 19 -173 11 -59 38 -380 42
-510 l3 -90 -92 1 c-76 1 -98 6 -127 24 -20 12 -36 26 -36 31 0 22 31 212 36
220 3 5 11 44 19 86 23 131 58 303 80 393 33 137 37 151 42 146 3 -3 9 -60 14
-128z"/>
<path d="M5996 4923 l-26 -14 1 -327 c0 -180 4 -406 9 -502 5 -96 13 -286 16
-423 5 -154 11 -253 18 -261 8 -10 18 -12 35 -5 23 9 24 12 18 82 -3 39 -11
133 -17 207 -6 74 -10 218 -8 320 l3 185 27 3 c44 5 63 -38 99 -223 5 -27 16
-81 24 -120 8 -38 17 -90 20 -115 15 -117 71 -307 100 -344 19 -24 23 -25 40
-12 20 14 20 16 -7 93 -16 43 -28 86 -28 95 0 9 -7 38 -15 64 -20 69 -65 249
-85 344 -5 25 -16 70 -24 100 -42 162 -43 152 4 246 66 136 80 193 80 321 0
153 -24 213 -106 264 -44 27 -145 39 -178 22z m134 -63 c29 -15 44 -32 60 -66
40 -92 19 -333 -40 -448 -23 -47 -67 -88 -89 -84 -14 3 -16 33 -19 288 -1 157
0 295 3 308 7 28 33 29 85 2z"/>
<path d="M6886 4924 c-10 -26 -7 -51 8 -63 8 -7 17 -24 20 -39 4 -15 13 -42
21 -59 38 -84 44 -100 50 -133 4 -19 13 -45 21 -57 8 -12 14 -39 14 -60 0 -21
6 -50 14 -64 7 -15 16 -62 20 -105 10 -116 17 -147 28 -136 14 14 6 215 -8
233 -7 8 -15 39 -18 70 -4 31 -14 65 -21 75 -8 11 -15 33 -15 49 0 17 -6 39
-14 50 -7 11 -16 34 -20 50 -4 17 -13 44 -20 60 -55 119 -67 145 -70 145 -2 0
-7 -7 -10 -16z"/>
<path d="M4108 4923 c-45 -12 11 -49 89 -60 84 -11 80 1 88 -215 3 -106 12
-263 20 -348 7 -85 19 -308 25 -495 6 -187 16 -350 21 -362 11 -29 35 -30 49
-3 13 24 -1 403 -25 670 -28 321 -46 629 -40 677 9 62 23 72 93 66 65 -5 87 5
78 35 -6 17 -18 21 -69 26 -98 8 -310 14 -329 9z"/>
<path d="M3420 4904 c0 -8 5 -12 10 -9 6 4 8 11 5 16 -9 14 -15 11 -15 -7z"/>
<path d="M5449 4903 c-11 -13 -14 -79 -16 -317 -1 -166 -4 -500 -6 -744 -4
-439 -4 -443 17 -457 15 -11 51 -15 132 -15 115 0 174 12 174 36 0 23 -36 34
-109 34 -79 0 -116 13 -126 44 -4 11 -8 179 -10 373 -4 405 -9 383 83 366 70
-13 102 -3 102 31 0 36 -24 49 -97 50 -58 1 -68 4 -84 26 -18 23 -18 38 -9
228 5 112 6 210 3 218 -3 8 2 25 10 38 l16 23 88 -18 c83 -18 88 -18 105 -2
16 17 16 19 -1 41 -13 19 -32 25 -87 32 -38 5 -82 14 -98 19 -40 16 -72 13
-87 -6z"/>
<path d="M3381 4838 c0 -7 4 -22 9 -33 7 -17 9 -15 9 13 1 17 -3 32 -9 32 -5
0 -10 -6 -9 -12z"/>
<path d="M3350 4730 c0 -18 4 -29 10 -25 6 3 10 15 10 25 0 10 -4 22 -10 25
-6 4 -10 -7 -10 -25z"/>
<path d="M7096 4184 c-10 -25 -7 -82 4 -89 6 -4 10 15 10 49 0 58 -3 68 -14
40z"/>
<path d="M3454 3255 c-7 -16 -5 -22 29 -77 172 -287 417 -524 717 -696 41 -24
82 -47 90 -53 8 -5 22 -12 30 -15 8 -3 33 -13 55 -23 96 -44 118 -52 270 -103
17 -6 51 -14 76 -18 26 -5 68 -16 93 -24 26 -9 71 -16 101 -16 30 0 80 -7 112
-15 77 -20 359 -21 429 -1 27 8 86 16 132 19 45 3 88 10 95 16 7 5 40 14 72
20 33 5 74 16 90 25 17 9 42 16 56 16 15 0 32 7 39 15 14 17 61 20 77 4 7 -7
14 -1 22 22 15 43 -3 55 -45 28 -17 -10 -42 -19 -55 -19 -13 0 -33 -7 -43 -15
-11 -8 -30 -15 -43 -15 -13 0 -36 -6 -51 -14 -15 -7 -51 -16 -81 -19 -29 -4
-59 -11 -66 -17 -11 -9 -91 -19 -330 -38 -44 -4 -107 -4 -140 -1 -33 4 -114
12 -180 18 -66 7 -137 19 -158 27 -20 8 -52 14 -70 14 -17 0 -45 7 -60 15 -15
8 -44 17 -64 21 -20 4 -48 13 -62 20 -14 8 -31 14 -37 14 -23 0 -265 115 -366
174 -53 30 -169 112 -198 138 -14 13 -41 36 -60 51 -65 53 -162 151 -223 227
-34 41 -64 77 -67 80 -15 13 -104 154 -120 190 -18 40 -55 54 -66 25z"/>
<path d="M6960 3259 c0 -5 5 -7 10 -4 6 3 10 8 10 11 0 2 -4 4 -10 4 -5 0 -10
-5 -10 -11z"/>
<path d="M3346 3232 c-2 -4 8 -33 24 -63 16 -29 36 -67 45 -84 24 -47 112
-183 125 -195 3 -3 32 -39 65 -80 81 -102 207 -226 282 -277 17 -11 40 -29 51
-40 38 -34 51 -43 77 -53 14 -5 25 -14 25 -19 0 -5 8 -12 18 -15 9 -4 35 -18
57 -31 22 -13 50 -29 63 -35 13 -5 30 -17 38 -25 9 -8 26 -15 39 -15 12 0 25
-7 29 -15 3 -8 16 -15 30 -15 14 0 32 -7 40 -16 21 -21 90 -32 84 -13 -2 7
-19 17 -38 22 -18 4 -39 15 -47 23 -8 8 -25 14 -37 14 -13 0 -29 7 -36 15 -6
8 -21 17 -33 21 -12 4 -27 13 -35 20 -7 8 -22 14 -33 14 -11 0 -22 7 -25 15
-4 8 -12 15 -19 15 -6 0 -22 9 -35 20 -13 11 -29 20 -37 20 -7 0 -16 7 -19 15
-4 8 -11 15 -16 15 -6 0 -23 10 -38 23 -15 12 -37 29 -49 37 -85 57 -301 278
-366 375 -12 16 -37 53 -56 80 -50 75 -56 85 -87 145 -48 96 -72 124 -86 102z"/>
<path d="M6882 3172 c-25 -30 -43 -59 -66 -109 -8 -18 -20 -33 -25 -33 -6 0
-11 -7 -11 -15 0 -7 -6 -18 -14 -22 -18 -11 -29 -50 -16 -58 5 -3 13 2 17 11
3 10 15 26 25 36 10 10 18 25 18 33 0 8 5 15 10 15 6 0 15 11 20 25 5 14 13
25 18 25 5 0 19 21 32 48 12 26 30 53 38 60 14 11 14 12 -4 12 -10 0 -29 -12
-42 -28z"/>
<path d="M6710 2914 c0 -17 22 -14 28 4 2 7 -3 12 -12 12 -9 0 -16 -7 -16 -16z"/>
<path d="M6663 2864 c-13 -14 -23 -28 -23 -30 0 -3 -50 -56 -111 -117 -138
-141 -139 -141 -139 -155 0 -18 14 -15 40 8 13 11 27 20 31 20 10 0 59 48 59
58 0 4 18 27 40 51 22 25 40 47 40 50 0 3 23 31 50 61 46 50 61 80 43 80 -5 0
-18 -12 -30 -26z"/>
<path d="M6330 2550 c0 -13 -10 -24 -25 -30 -14 -5 -25 -16 -25 -25 0 -22 37
-18 50 5 6 11 20 20 30 20 25 0 26 18 3 36 -25 19 -33 17 -33 -6z"/>
<path d="M6216 2465 c-7 -26 -20 -33 -31 -15 -11 17 -35 11 -35 -9 0 -26 -15
-34 -39 -22 -15 9 -22 6 -34 -12 -13 -20 -13 -25 0 -42 10 -13 17 -16 20 -8 2
7 20 17 39 23 19 6 34 16 34 21 0 5 9 9 20 9 10 0 23 6 27 13 4 7 21 18 37 25
30 13 27 25 -10 36 -17 5 -23 2 -28 -19z"/>
<path d="M4452 2218 c5 -15 88 -24 88 -10 0 13 -25 22 -62 22 -19 0 -28 -4
-26 -12z"/>
<path d="M5778 2213 c6 -2 18 -2 25 0 6 3 1 5 -13 5 -14 0 -19 -2 -12 -5z"/>
<path d="M4557 2179 c15 -15 86 -18 93 -4 3 6 -18 11 -50 13 -43 2 -52 1 -43
-9z"/>
<path d="M5673 2173 c9 -2 23 -2 30 0 6 3 -1 5 -18 5 -16 0 -22 -2 -12 -5z"/>
<path d="M4692 2151 c-10 -6 -8 -10 10 -14 34 -10 116 -8 122 2 11 18 -106 29
-132 12z"/>
<path d="M5505 2139 c18 -5 43 -5 60 0 25 8 20 9 -30 9 -51 0 -55 -1 -30 -9z"/>
<path d="M4886 2111 c12 -12 43 -13 297 -12 136 1 206 4 202 11 -4 6 -101 10
-258 10 -153 0 -247 -4 -241 -9z"/>
</g>
</svg>
