<?xml version="1.0" encoding="utf-8"?>
<!-- Svg Vector Icons : http://www.onlinewebfonts.com/icon -->
<!DOCTYPE svg PUBLIC "-//W3C//DTD SVG 1.1//EN" "http://www.w3.org/Graphics/SVG/1.1/DTD/svg11.dtd">
<svg version="1.1" xmlns="http://www.w3.org/2000/svg" xmlns:xlink="http://www.w3.org/1999/xlink" x="0px" y="0px" viewBox="0 0 1000 1000" enable-background="new 0 0 1000 1000" xml:space="preserve">
<metadata> Svg Vector Icons : http://www.onlinewebfonts.com/icon </metadata>
<g><g><g><g id="circle_33_"><g><path d="M576.6,362.2c0-16.9-13.7-30.6-30.6-30.6h-91.9c-16.9,0-30.6,13.7-30.6,30.6v15.3h153.1V362.2z M683.8,408.1H316.3c-16.9,0-30.6,13.7-30.6,30.6v183.8c0,16.9,13.7,30.6,30.6,30.6h367.5c16.9,0,30.6-13.7,30.6-30.6V438.8C714.4,421.8,700.6,408.1,683.8,408.1z M500,622.5c-50.7,0-91.9-41.2-91.9-91.9c0-50.7,41.1-91.9,91.9-91.9c50.7,0,91.9,41.1,91.9,91.9C591.9,581.3,550.7,622.5,500,622.5z M668.4,469.4c-8.4,0-15.3-6.8-15.3-15.3c0-8.4,6.9-15.3,15.3-15.3c8.5,0,15.3,6.9,15.3,15.3C683.8,462.5,676.9,469.4,668.4,469.4z M500,469.4c-33.8,0-61.3,27.4-61.3,61.3s27.4,61.3,61.3,61.3s61.3-27.4,61.3-61.3S533.8,469.4,500,469.4z M500,10C229.4,10,10,229.4,10,500c0,270.6,219.4,490,490,490c270.6,0,490-219.4,490-490C990,229.4,770.6,10,500,10z M745,622.5c0,33.8-27.4,61.3-61.3,61.3H316.3c-33.8,0-61.3-27.4-61.3-61.3V438.8c0-33.8,27.4-61.3,61.3-61.3h76.6v-15.3c0-33.8,27.4-61.3,61.3-61.3h91.9c33.8,0,61.3,27.4,61.3,61.3v15.3h76.6c33.8,0,61.3,27.4,61.3,61.3V622.5z"/></g></g></g></g><g></g><g></g><g></g><g></g><g></g><g></g><g></g><g></g><g></g><g></g><g></g><g></g><g></g><g></g><g></g></g>
</svg>