<?xml version="1.0" standalone="no"?>
<!DOCTYPE svg PUBLIC "-//W3C//DTD SVG 20010904//EN"
 "http://www.w3.org/TR/2001/REC-SVG-20010904/DTD/svg10.dtd">
<svg version="1.0" xmlns="http://www.w3.org/2000/svg"
 width="720.000000pt" height="720.000000pt" viewBox="0 0 720.000000 720.000000"
 preserveAspectRatio="xMidYMid meet">

<g transform="translate(0.000000,720.000000) scale(0.100000,-0.100000)"
fill="#000000" stroke="none">
<path d="M3400 6674 c-25 -2 -99 -9 -165 -14 -193 -16 -362 -48 -555 -105 -30
-9 -68 -20 -85 -24 -31 -9 -134 -46 -170 -61 -11 -5 -38 -16 -60 -25 -110 -46
-304 -147 -420 -219 -71 -44 -132 -83 -135 -86 -3 -3 -30 -23 -60 -45 -30 -21
-71 -53 -91 -69 -20 -17 -53 -45 -75 -62 -50 -40 -213 -201 -284 -279 -102
-114 -259 -335 -340 -480 -101 -181 -206 -428 -251 -590 -29 -106 -42 -155
-49 -190 -5 -22 -16 -71 -25 -110 -10 -38 -21 -90 -25 -115 -4 -25 -17 -97
-28 -160 -11 -63 -25 -159 -31 -212 -14 -125 -14 -415 0 -543 13 -128 55 -360
81 -450 11 -38 23 -83 28 -100 4 -16 24 -75 44 -130 89 -248 227 -502 394
-724 107 -143 369 -408 512 -517 356 -273 722 -439 1195 -543 301 -66 759 -66
1095 0 113 22 176 39 345 95 112 36 137 46 235 91 109 50 125 58 128 66 2 4
10 7 18 7 13 0 54 22 109 58 11 7 28 15 38 18 9 4 17 10 17 15 0 5 5 9 11 9
14 0 462 299 509 340 19 16 38 30 41 30 3 0 15 8 26 18 12 9 45 37 74 61 85
70 318 308 387 396 35 44 69 87 75 95 51 64 180 272 231 373 173 337 266 660
296 1025 12 139 1 427 -20 547 -21 118 -42 221 -56 270 -23 90 -35 130 -44
155 -25 72 -63 177 -70 195 -22 52 -153 316 -181 365 -17 30 -45 80 -62 110
-53 95 -197 321 -244 380 -72 93 -116 144 -162 193 -31 32 -59 64 -63 72 -14
23 -261 240 -346 303 -89 66 -247 172 -257 172 -3 0 -24 11 -46 26 -133 83
-424 206 -614 259 -33 9 -73 20 -90 25 -27 8 -118 26 -250 50 -105 20 -449 41
-535 34z m400 -64 c80 -11 170 -24 200 -29 130 -23 459 -119 485 -142 5 -5 15
-9 21 -9 20 0 215 -92 319 -150 208 -116 410 -265 575 -424 105 -102 143 -146
127 -146 -9 0 -17 3 -19 8 -12 26 -230 188 -383 284 -347 216 -706 344 -1160
415 -155 24 -633 23 -790 -1 -162 -24 -382 -71 -455 -96 -14 -5 -52 -16 -85
-25 -33 -9 -67 -20 -75 -25 -9 -4 -30 -11 -48 -14 -17 -4 -34 -12 -37 -17 -4
-5 -15 -9 -26 -9 -10 0 -27 -4 -37 -10 -16 -8 -68 -31 -117 -50 -73 -28 -316
-153 -404 -207 -91 -56 -266 -176 -281 -192 -3 -4 -36 -32 -75 -63 -121 -98
-345 -334 -430 -452 -11 -16 -25 -33 -30 -40 -14 -14 -115 -165 -115 -170 0
-3 -22 -40 -48 -83 -27 -43 -52 -87 -57 -98 -8 -19 -8 -19 -13 -1 -2 10 2 30
8 45 7 14 16 35 21 46 37 95 153 314 205 388 19 26 34 52 34 57 0 6 4 10 9 10
5 0 12 8 15 18 4 10 14 27 24 38 9 10 37 46 62 79 24 33 60 78 79 100 62 70
264 270 320 316 29 24 59 49 65 54 29 27 165 121 263 182 137 86 432 233 466
233 7 0 17 4 23 8 21 19 262 92 414 126 302 67 665 85 950 46z m8 -221 c122
-13 296 -38 342 -49 139 -34 170 -42 205 -52 61 -17 187 -58 210 -68 11 -5 56
-24 100 -41 341 -139 673 -362 940 -633 265 -269 420 -507 530 -816 44 -125
58 -169 88 -295 81 -336 100 -754 47 -1050 -35 -192 -63 -316 -97 -420 -23
-73 -63 -187 -73 -210 -5 -11 -19 -42 -30 -70 -38 -89 -143 -295 -151 -295 -3
0 -10 -10 -14 -22 -7 -22 -7 -22 -12 -3 -3 10 0 21 6 23 6 2 11 10 11 18 0 7
11 37 24 66 50 111 80 195 135 373 77 248 125 683 102 929 -13 139 -35 292
-52 366 -49 212 -72 288 -132 445 -45 119 -103 240 -162 345 -27 47 -53 94
-60 105 -46 85 -181 271 -270 375 -39 45 -260 266 -305 305 -19 17 -55 46 -80
65 -25 19 -47 37 -50 41 -6 8 -228 159 -234 159 -2 0 -33 17 -67 38 -59 36
-207 110 -289 145 -289 124 -603 196 -944 217 -81 5 -151 11 -154 14 -10 10
336 6 436 -5z m-273 -54 c410 -20 855 -159 1226 -382 358 -214 671 -516 906
-870 136 -207 293 -538 343 -728 4 -16 15 -57 24 -90 80 -291 114 -664 86
-933 -12 -112 -38 -281 -50 -332 -76 -307 -136 -475 -253 -700 -120 -232 -213
-364 -364 -517 -95 -96 -120 -119 -212 -193 -24 -19 -58 -47 -75 -62 -17 -15
-37 -28 -43 -28 -7 0 -13 -4 -13 -8 0 -4 -15 -16 -32 -27 -18 -10 -35 -21 -38
-24 -9 -10 -44 -31 -62 -37 -10 -4 -18 -10 -18 -14 0 -4 -8 -10 -17 -13 -10
-3 -49 -24 -88 -47 -99 -57 -251 -130 -335 -160 -19 -7 -48 -18 -65 -25 -131
-54 -409 -122 -595 -146 -127 -17 -462 -23 -555 -10 -238 32 -338 47 -370 55
-11 3 -59 15 -107 26 -78 18 -270 77 -323 99 -11 5 -51 21 -90 36 -242 96
-552 283 -760 459 -206 173 -419 418 -552 632 -74 119 -148 261 -192 369 -17
44 -36 89 -41 100 -8 18 -45 129 -69 210 -6 17 -16 59 -25 95 -61 268 -70 345
-70 640 0 204 4 288 17 365 25 146 58 295 79 365 21 66 40 125 48 145 4 11 14
36 20 55 43 119 187 407 226 451 8 8 14 21 14 27 0 7 4 12 8 12 5 0 14 11 20
24 15 33 165 230 221 290 150 160 296 292 451 407 117 86 374 230 525 293 22
9 48 21 57 26 10 6 26 10 36 10 10 0 22 4 27 9 6 5 37 16 70 26 33 9 71 21 85
25 65 22 215 55 345 75 101 16 379 35 425 29 14 -1 84 -6 155 -9z m-2125 -789
c0 -3 -4 -8 -10 -11 -5 -3 -10 -1 -10 4 0 6 5 11 10 11 6 0 10 -2 10 -4z m-50
-50 c0 -3 -4 -8 -10 -11 -5 -3 -10 -1 -10 4 0 6 5 11 10 11 6 0 10 -2 10 -4z
m-20 -31 c0 -2 -13 -18 -30 -35 -16 -17 -30 -35 -30 -40 0 -4 -4 -10 -8 -12
-8 -3 -71 -83 -119 -152 -12 -17 -27 -36 -33 -43 -5 -7 -10 -16 -10 -22 0 -5
-4 -11 -8 -13 -15 -6 -112 -172 -162 -278 -17 -36 -36 -73 -41 -83 -5 -9 -23
-52 -39 -95 -17 -42 -35 -86 -40 -97 -72 -160 -159 -586 -161 -794 -1 -53 -5
-121 -9 -151 -5 -33 -7 51 -4 210 3 285 15 404 51 520 6 19 19 60 28 90 19 62
17 58 76 200 68 165 224 446 276 498 7 7 13 17 13 21 0 4 8 16 18 27 9 10 33
39 52 64 19 25 39 50 45 56 5 6 34 39 64 72 47 54 71 73 71 57z m-510 -646 c0
-11 -4 -18 -10 -14 -5 3 -7 12 -3 20 7 21 13 19 13 -6z m5499 -586 c-1 -42 -2
-44 -9 -21 -7 25 -3 68 6 68 2 0 4 -21 3 -47z m31 -123 c0 -19 4 -50 10 -69 5
-18 15 -109 21 -201 13 -172 3 -431 -22 -552 -6 -29 -15 -78 -21 -108 -60
-308 -182 -610 -363 -900 -42 -68 -81 -128 -86 -134 -5 -6 -30 -38 -55 -71
-65 -85 -137 -167 -229 -260 -104 -104 -254 -235 -270 -235 -8 0 -15 -6 -18
-12 -2 -7 -8 -10 -12 -6 -4 4 14 29 41 56 27 26 74 77 104 112 30 36 71 83 91
105 145 159 318 398 418 575 31 54 136 266 152 305 4 11 14 36 22 55 16 38 55
146 80 225 24 74 53 189 71 285 9 47 21 107 27 134 22 115 33 383 22 557 -11
170 -9 215 8 187 5 -7 9 -29 9 -48z m-5750 -652 c10 -113 41 -280 75 -403 30
-110 32 -120 54 -185 109 -325 310 -673 546 -945 61 -70 240 -246 305 -301
221 -184 493 -350 745 -454 11 -5 36 -15 55 -23 220 -93 495 -161 800 -198
359 -44 837 -1 1190 106 30 9 67 19 83 22 15 3 30 9 33 14 3 5 13 9 22 9 9 0
30 7 46 15 15 8 35 15 42 15 8 0 22 4 32 9 57 31 86 41 96 31 7 -7 3 -10 -12
-10 -13 0 -22 -6 -22 -15 0 -8 -9 -15 -19 -15 -11 0 -23 -4 -26 -10 -3 -5 -23
-17 -43 -26 -20 -9 -62 -28 -92 -42 -30 -13 -64 -28 -75 -33 -11 -4 -36 -14
-55 -22 -79 -34 -211 -77 -305 -101 -140 -35 -240 -53 -410 -76 -104 -13 -472
-13 -589 1 -150 18 -264 39 -411 75 -62 16 -81 21 -180 53 -506 163 -968 483
-1305 902 -162 201 -231 318 -391 654 -13 28 -79 214 -89 250 -5 17 -17 62
-28 100 -58 209 -92 435 -92 604 0 57 3 102 6 99 3 -4 9 -48 14 -100z m5267
-1140 c-3 -8 -6 -5 -6 6 -1 11 2 17 5 13 3 -3 4 -12 1 -19z m-630 -774 c-3 -3
-12 -4 -19 -1 -8 3 -5 6 6 6 11 1 17 -2 13 -5z m-34 -20 c9 -9 -98 -101 -177
-152 -82 -53 -252 -142 -272 -142 -24 0 -15 17 11 24 14 4 25 11 25 16 0 6 9
10 19 10 11 0 21 4 23 9 2 4 30 23 63 41 33 18 62 36 65 39 3 3 22 15 43 26
20 11 37 23 37 27 0 5 5 8 10 8 12 0 123 80 128 92 4 9 16 11 25 2z m-473
-304 c0 -5 -9 -10 -21 -10 -11 0 -17 5 -14 10 3 6 13 10 21 10 8 0 14 -4 14
-10z m-67 -27 c-7 -2 -19 -2 -25 0 -7 3 -2 5 12 5 14 0 19 -2 13 -5z"/>
</g>
</svg>
