<?xml version="1.0" encoding="UTF-8" standalone="no" ?>
<!DOCTYPE svg PUBLIC "-//W3C//DTD SVG 1.1//EN" "http://www.w3.org/Graphics/SVG/1.1/DTD/svg11.dtd">
<svg xmlns="http://www.w3.org/2000/svg" xmlns:xlink="http://www.w3.org/1999/xlink" version="1.1" width="1080" height="1080" viewBox="0 0 1080 1080" xml:space="preserve">
<desc>Created with Fabric.js 4.6.0</desc>
<defs>
</defs>
<g transform="matrix(0.79 0 0 0.79 545.86 540)" id="kAhGR1il9PNbii3l4BGCL"  >
<g style="" vector-effect="non-scaling-stroke"   >
		<g transform="matrix(0.13 0 0 -0.13 -57.35 -199.08)" id="3q7qfs4_omUA89Go3_bgi"  >
<path style="stroke: none; stroke-width: 1; stroke-dasharray: none; stroke-linecap: butt; stroke-dashoffset: 0; stroke-linejoin: miter; stroke-miterlimit: 4; fill: rgb(0,0,0); fill-rule: nonzero; opacity: 1;" vector-effect="non-scaling-stroke"  transform=" translate(-4749.9, -5188.07)" d="M 4815 7330 C 4597 7306 4542 7298 4515 7290 C 4499 7286 4463 7279 4435 7275 C 4321 7260 3952 7156 3845 7110 C 3834 7105 3800 7091 3770 7079 C 3660 7035 3442 6931 3330 6869 C 3210 6802 2962 6630 2826 6520 C 2654 6380 2411 6126 2258 5924 C 2210 5861 2080 5672 2080 5666 C 2080 5664 2054 5618 2022 5563 C 1934 5416 1794 5111 1774 5027 C 1771 5012 1764 4997 1759 4994 C 1754 4991 1750 4980 1750 4970 C 1750 4959 1744 4936 1736 4918 C 1715 4867 1672 4713 1645 4590 C 1636 4549 1623 4497 1618 4475 C 1608 4436 1597 4386 1564 4215 C 1522 3997 1501 3797 1500 3623 C 1500 3484 1504 3460 1526 3460 C 1534 3460 1540 3456 1540 3450 C 1540 3445 1549 3440 1560 3440 C 1571 3440 1580 3439 1580 3438 C 1581 3436 1588 3399 1596 3355 C 1605 3311 1617 3232 1624 3180 C 1635 3095 1653 3040 1671 3040 C 1675 3040 1681 3066 1684 3098 C 1688 3129 1698 3185 1707 3222 C 1721 3284 1721 3303 1706 3443 C 1667 3816 1707 4213 1827 4640 C 1845 4705 1855 4733 1915 4890 C 1962 5014 2088 5283 2102 5288 C 2106 5290 2110 5305 2110 5321 C 2110 5337 2115 5350 2123 5350 C 2129 5350 2160 5387 2190 5433 C 2233 5498 2358 5669 2402 5725 C 2519 5871 2720 6075 2845 6174 C 2873 6196 2900 6219 2905 6225 C 2921 6242 3078 6360 3085 6360 C 3089 6360 3109 6373 3129 6388 C 3160 6413 3248 6467 3370 6538 C 3415 6565 3568 6641 3645 6675 C 3678 6689 3719 6708 3737 6716 C 3754 6724 3773 6730 3779 6730 C 3785 6730 3798 6734 3808 6740 C 3830 6753 3908 6780 3940 6787 C 3954 6790 3979 6798 3997 6806 C 4014 6814 4035 6820 4045 6820 C 4054 6820 4082 6826 4108 6834 C 4322 6898 4626 6935 4935 6935 C 5207 6935 5356 6920 5630 6864 C 5771 6835 6044 6756 6065 6738 C 6070 6734 6080 6730 6088 6730 C 6096 6730 6116 6724 6133 6716 C 6151 6708 6206 6685 6255 6664 C 6507 6559 6798 6385 7025 6203 C 7145 6107 7416 5844 7495 5748 C 7523 5714 7563 5667 7584 5643 L 7623 5599 L 7646 5621 L 7669 5643 L 7648 5674 C 7520 5857 7153 6211 6940 6356 C 6915 6373 6866 6406 6830 6431 C 6759 6479 6733 6496 6710 6506 C 6702 6510 6677 6525 6655 6539 C 6581 6585 6352 6696 6230 6744 C 6205 6754 6176 6766 6165 6771 C 6147 6779 5968 6837 5895 6859 C 5852 6872 5708 6906 5620 6923 C 5465 6954 5390 6963 5210 6974 C 5027 6985 5026 6986 5110 6993 C 5361 7014 5633 6992 5945 6924 C 6097 6891 6356 6813 6455 6771 C 6466 6766 6516 6745 6565 6724 C 6680 6676 6894 6567 6988 6510 C 7028 6485 7069 6460 7078 6455 C 7156 6408 7349 6267 7445 6186 C 7560 6089 7690 5962 7809 5832 L 7892 5741 L 7939 5747 C 7993 5754 8009 5764 7995 5785 C 7824 6035 7703 6179 7500 6375 C 7396 6475 7326 6537 7250 6595 C 7214 6622 7181 6648 7175 6653 C 7114 6704 6957 6805 6760 6920 C 6652 6983 6382 7103 6255 7144 C 6228 7153 6196 7164 6185 7169 C 6149 7184 5976 7232 5880 7254 C 5809 7270 5632 7302 5505 7321 C 5410 7335 4915 7342 4815 7330 z M 5435 7270 C 5631 7248 5861 7203 6018 7156 C 6046 7147 6091 7134 6118 7126 C 6144 7119 6201 7099 6245 7082 C 6627 6939 6954 6750 7264 6496 C 7329 6442 7610 6168 7610 6158 C 7610 6154 7603 6150 7595 6150 C 7587 6150 7580 6157 7580 6165 C 7580 6173 7576 6180 7570 6180 C 7565 6180 7514 6217 7458 6263 C 7343 6355 7128 6510 7114 6510 C 7113 6510 7092 6523 7068 6539 C 6986 6594 6741 6719 6605 6776 C 6589 6783 6559 6796 6538 6804 C 6518 6813 6495 6820 6487 6820 C 6478 6820 6469 6824 6465 6829 C 6462 6834 6445 6842 6427 6846 C 6410 6849 6382 6858 6365 6865 C 6320 6884 6174 6927 6065 6953 C 5802 7018 5457 7060 5200 7060 C 4868 7060 4382 6987 4125 6898 C 4109 6893 4079 6884 4060 6880 C 4015 6870 3963 6852 3927 6834 C 3911 6826 3892 6820 3883 6820 C 3875 6820 3854 6814 3837 6806 C 3819 6799 3785 6785 3760 6775 C 3735 6765 3695 6748 3670 6738 C 3645 6727 3616 6715 3605 6711 C 3544 6685 3295 6560 3232 6523 C 3192 6499 3158 6480 3155 6480 C 3153 6480 3122 6460 3086 6435 C 3049 6410 3017 6390 3015 6390 C 3010 6390 2926 6329 2805 6238 C 2647 6118 2413 5892 2295 5745 C 2274 5717 2253 5693 2250 5690 C 2221 5665 2020 5376 2020 5360 C 2020 5354 2016 5350 2012 5350 C 2007 5350 1990 5325 1974 5295 C 1930 5211 1923 5199 1911 5187 C 1905 5181 1900 5168 1900 5158 C 1900 5148 1894 5137 1886 5134 C 1878 5131 1869 5114 1866 5097 C 1861 5074 1857 5069 1851 5079 C 1841 5094 1848 5130 1861 5130 C 1866 5130 1870 5142 1870 5156 C 1870 5170 1876 5194 1883 5208 C 1891 5223 1904 5251 1913 5270 C 1959 5372 2046 5541 2080 5595 C 2091 5612 2104 5635 2110 5648 C 2115 5660 2124 5676 2130 5683 C 2136 5689 2164 5731 2193 5775 C 2221 5819 2249 5860 2255 5866 C 2260 5872 2272 5888 2280 5900 C 2288 5912 2303 5931 2313 5942 C 2322 5954 2330 5966 2330 5969 C 2330 5972 2345 5991 2363 6011 C 2380 6031 2422 6078 2455 6116 C 2530 6203 2698 6371 2769 6430 C 2799 6455 2832 6483 2842 6493 C 2860 6510 3008 6622 3050 6650 C 3062 6658 3083 6673 3095 6683 C 3108 6692 3123 6700 3129 6700 C 3135 6700 3140 6703 3140 6708 C 3140 6712 3163 6729 3191 6745 C 3219 6762 3254 6783 3269 6792 C 3314 6821 3502 6924 3530 6936 C 3538 6939 3568 6952 3595 6965 C 3623 6978 3674 7000 3710 7014 C 3746 7029 3784 7045 3795 7049 C 3852 7073 3902 7091 3965 7110 C 4004 7122 4044 7136 4055 7140 C 4107 7162 4366 7221 4490 7240 C 4526 7246 4584 7255 4620 7261 C 4786 7288 5230 7294 5435 7270 z M 7630 6130 C 7630 6125 7628 6120 7626 6120 C 7623 6120 7618 6125 7615 6130 C 7612 6136 7614 6140 7619 6140 C 7625 6140 7630 6136 7630 6130 z M 2500 5890 C 2500 5885 2495 5880 2489 5880 C 2484 5880 2482 5885 2485 5890 C 2488 5896 2493 5900 2496 5900 C 2498 5900 2500 5896 2500 5890 z M 2466 5853 C 2456 5843 2447 5858 2456 5871 C 2462 5882 2464 5882 2468 5871 C 2470 5864 2469 5856 2466 5853 z M 2422 5800 C 2404 5784 2390 5767 2390 5763 C 2390 5758 2382 5747 2373 5739 C 2363 5730 2348 5713 2340 5701 C 2332 5688 2318 5670 2310 5660 C 2302 5650 2288 5632 2280 5620 C 2272 5608 2261 5592 2255 5586 C 2188 5510 1988 5157 1913 4983 C 1881 4908 1871 4883 1855 4840 C 1801 4698 1767 4591 1749 4511 C 1744 4486 1736 4452 1731 4436 C 1699 4329 1663 4101 1654 3955 C 1646 3803 1634 3780 1625 3896 C 1610 4070 1658 4474 1706 4587 C 1714 4604 1720 4623 1720 4629 C 1720 4641 1751 4738 1771 4787 C 1777 4802 1786 4824 1790 4835 C 1853 4994 2047 5368 2072 5378 C 2076 5380 2080 5386 2080 5392 C 2080 5397 2088 5412 2098 5425 C 2107 5437 2122 5458 2130 5470 C 2167 5526 2307 5708 2332 5732 C 2348 5747 2360 5761 2360 5764 C 2360 5766 2377 5786 2398 5808 C 2421 5833 2439 5844 2445 5839 C 2451 5833 2442 5819 2422 5800 z M 1827 5028 C 1824 5020 1821 5023 1821 5034 C 1820 5045 1823 5051 1826 5047 C 1829 5044 1830 5035 1827 5028 z" stroke-linecap="round" />
</g>
		<g transform="matrix(0.13 0 0 -0.13 -573.61 -30.95)" id="K6nU0DRVBCB709epsCHy7"  >
<path style="stroke: none; stroke-width: 1; stroke-dasharray: none; stroke-linecap: butt; stroke-dashoffset: 0; stroke-linejoin: miter; stroke-miterlimit: 4; fill: rgb(0,0,0); fill-rule: nonzero; opacity: 1;" vector-effect="non-scaling-stroke"  transform=" translate(-877.96, -3927.11)" d="M 870 5501 C 766 5484 663 5435 597 5372 C 531 5309 439 5141 396 5005 C 368 4917 336 4734 319 4560 C 305 4428 313 3424 329 3290 C 335 3238 344 3150 350 3095 C 394 2671 460 2533 671 2428 C 839 2346 870 2339 1021 2358 C 1100 2368 1141 2385 1225 2444 C 1252 2463 1278 2476 1283 2473 C 1287 2471 1299 2451 1310 2430 C 1324 2403 1338 2390 1360 2385 C 1400 2376 1429 2387 1440 2416 C 1454 2452 1431 2695 1394 2893 C 1386 2935 1380 2995 1380 3024 C 1380 3103 1361 3230 1343 3268 C 1334 3287 1313 3307 1293 3317 C 1261 3332 1250 3332 1151 3317 C 1091 3308 1022 3292 996 3281 C 956 3263 950 3257 950 3231 C 950 3185 977 3176 1105 3178 L 1215 3181 L 1236 3138 C 1276 3058 1289 2983 1292 2813 L 1295 2651 L 1231 2586 C 1139 2493 1094 2475 954 2476 C 849 2476 839 2478 779 2508 C 706 2544 680 2566 630 2630 C 541 2744 513 2823 458 3105 C 437 3210 437 3240 438 3740 C 442 4595 481 4960 597 5197 C 636 5275 711 5354 777 5385 C 835 5413 861 5414 996 5394 C 1031 5389 1039 5391 1052 5412 C 1068 5437 1063 5467 1038 5488 C 1019 5503 927 5510 870 5501 z" stroke-linecap="round" />
</g>
		<g transform="matrix(0.13 0 0 -0.13 378.71 -30.68)" id="nHDw65xN_jxs1361XNFRs"  >
<path style="stroke: none; stroke-width: 1; stroke-dasharray: none; stroke-linecap: butt; stroke-dashoffset: 0; stroke-linejoin: miter; stroke-miterlimit: 4; fill: rgb(0,0,0); fill-rule: nonzero; opacity: 1;" vector-effect="non-scaling-stroke"  transform=" translate(-8020.32, -3925.12)" d="M 8030 5504 C 7842 5483 7704 5371 7600 5157 C 7554 5061 7537 5009 7510 4875 C 7462 4633 7458 4585 7453 4205 C 7445 3606 7480 3044 7540 2790 C 7580 2620 7668 2500 7801 2433 C 7934 2366 8054 2332 8098 2348 C 8113 2354 8150 2360 8180 2363 C 8236 2367 8264 2378 8365 2438 C 8395 2457 8427 2470 8434 2467 C 8442 2464 8451 2448 8455 2431 C 8467 2375 8573 2364 8586 2417 C 8594 2449 8584 2596 8565 2725 C 8556 2780 8543 2868 8535 2920 C 8527 2972 8519 3058 8516 3110 C 8510 3229 8494 3278 8449 3308 C 8421 3328 8407 3331 8365 3326 C 8195 3307 8105 3281 8095 3249 C 8076 3191 8130 3167 8252 3178 C 8344 3187 8360 3182 8382 3139 C 8416 3070 8430 2991 8436 2828 L 8443 2665 L 8401 2612 C 8306 2492 8176 2449 8009 2480 C 7909 2499 7844 2541 7775 2630 C 7682 2751 7633 2893 7594 3158 C 7580 3256 7578 3339 7583 3788 C 7591 4557 7614 4828 7692 5075 C 7745 5240 7838 5359 7942 5394 C 7998 5412 8018 5412 8133 5394 C 8161 5389 8176 5392 8190 5405 C 8252 5461 8159 5518 8030 5504 z" stroke-linecap="round" />
</g>
		<g transform="matrix(0.13 0 0 -0.13 441.08 -82.23)" id="Jv97p6xryIsrMJQFzF1tg"  >
<path style="stroke: none; stroke-width: 1; stroke-dasharray: none; stroke-linecap: butt; stroke-dashoffset: 0; stroke-linejoin: miter; stroke-miterlimit: 4; fill: rgb(0,0,0); fill-rule: nonzero; opacity: 1;" vector-effect="non-scaling-stroke"  transform=" translate(-8488.13, -4311.7)" d="M 8298 5173 C 8264 5156 8263 5136 8291 5067 C 8321 4992 8356 4894 8370 4845 C 8375 4829 8388 4784 8400 4745 C 8411 4707 8424 4657 8429 4635 C 8434 4613 8443 4575 8449 4550 C 8506 4314 8535 4022 8527 3737 C 8523 3562 8523 3558 8544 3550 C 8555 3546 8569 3546 8573 3550 C 8578 3554 8584 3641 8587 3741 C 8591 3902 8587 3991 8563 4304 C 8560 4352 8562 4370 8569 4366 C 8575 4362 8580 4336 8580 4309 C 8580 4281 8585 4249 8592 4237 C 8620 4186 8649 3888 8650 3649 C 8650 3486 8651 3472 8670 3455 C 8681 3445 8693 3440 8698 3444 C 8710 3457 8706 3938 8692 4030 C 8686 4077 8675 4147 8670 4185 C 8639 4392 8560 4692 8504 4817 C 8496 4834 8490 4853 8490 4858 C 8490 4864 8484 4881 8476 4897 C 8468 4912 8455 4941 8446 4960 C 8399 5069 8349 5168 8338 5177 C 8329 5183 8316 5182 8298 5173 z" stroke-linecap="round" />
</g>
		<g transform="matrix(0.13 0 0 -0.13 567.1 -4.45)" id="r1nhggTiIsgy3bpfbp1yQ"  >
<path style="stroke: none; stroke-width: 1; stroke-dasharray: none; stroke-linecap: butt; stroke-dashoffset: 0; stroke-linejoin: miter; stroke-miterlimit: 4; fill: rgb(0,0,0); fill-rule: nonzero; opacity: 1;" vector-effect="non-scaling-stroke"  transform=" translate(-9433.28, -3728.36)" d="M 9183 5110 C 9156 5099 9115 5035 9090 4967 C 9059 4879 9017 4646 9005 4500 C 9003 4464 8996 4397 8990 4350 C 8972 4208 8976 3395 8994 3227 C 9056 2678 9168 2415 9366 2355 C 9428 2336 9462 2336 9524 2355 C 9608 2380 9681 2448 9737 2551 C 9774 2620 9825 2766 9835 2830 C 9838 2855 9845 2889 9850 2905 C 9855 2922 9866 3009 9875 3100 C 9888 3235 9890 3358 9887 3780 C 9885 4099 9879 4327 9872 4380 C 9830 4679 9716 4944 9605 4999 C 9583 5010 9527 5026 9480 5036 C 9382 5055 9312 5078 9289 5097 C 9267 5115 9211 5122 9183 5110 z M 9495 4937 C 9577 4893 9653 4798 9689 4695 C 9709 4636 9733 4359 9751 3955 C 9772 3495 9773 3380 9756 3177 C 9737 2957 9717 2852 9662 2685 C 9644 2631 9587 2533 9561 2512 C 9399 2383 9262 2492 9186 2810 C 9141 2999 9126 3105 9109 3380 C 9096 3577 9103 4105 9119 4245 C 9125 4295 9134 4396 9140 4470 C 9165 4786 9170 4838 9181 4885 C 9187 4913 9197 4941 9203 4948 C 9219 4969 9454 4959 9495 4937 z" stroke-linecap="round" />
</g>
		<g transform="matrix(0.13 0 0 -0.13 -385.86 -7.3)" id="XMNQnCvzNKjjCmLahgj3B"  >
<path style="stroke: none; stroke-width: 1; stroke-dasharray: none; stroke-linecap: butt; stroke-dashoffset: 0; stroke-linejoin: miter; stroke-miterlimit: 4; fill: rgb(0,0,0); fill-rule: nonzero; opacity: 1;" vector-effect="non-scaling-stroke"  transform=" translate(-2286.08, -3749.77)" d="M 2338 5101 C 2312 5097 2288 5091 2284 5087 C 2275 5078 2253 4949 2235 4790 C 2207 4549 2200 4495 2194 4480 C 2191 4472 2182 4429 2173 4385 C 2155 4289 2136 4194 2121 4120 C 2080 3924 2076 3901 2035 3645 C 2026 3590 2013 3509 2005 3465 C 1997 3421 1984 3340 1975 3285 C 1966 3230 1952 3157 1944 3123 C 1936 3089 1930 3051 1930 3038 C 1930 3025 1924 2986 1916 2950 C 1908 2914 1894 2847 1885 2800 C 1858 2663 1838 2578 1824 2537 C 1804 2482 1807 2447 1833 2422 C 1917 2343 1979 2490 2036 2900 C 2044 2963 2055 3019 2059 3023 C 2064 3028 2107 3029 2156 3026 C 2205 3023 2286 3018 2337 3016 C 2483 3010 2538 3001 2544 2982 C 2565 2906 2598 2678 2605 2555 C 2609 2492 2618 2434 2626 2418 C 2639 2393 2646 2390 2690 2390 C 2776 2390 2780 2429 2724 2740 C 2713 2800 2706 2896 2705 3000 C 2704 3091 2698 3185 2692 3210 C 2658 3358 2622 3535 2609 3625 C 2603 3664 2592 3738 2584 3790 C 2576 3843 2570 3904 2570 3925 C 2570 3947 2563 4026 2555 4100 C 2531 4325 2505 4649 2484 4988 C 2476 5117 2473 5120 2338 5101 z M 2406 4567 C 2433 4322 2451 4166 2465 4050 C 2495 3813 2511 3618 2520 3400 C 2525 3276 2531 3164 2535 3150 C 2547 3099 2536 3096 2379 3114 C 2185 3136 2100 3164 2085 3209 C 2078 3233 2097 3360 2144 3595 C 2152 3634 2163 3692 2169 3725 C 2176 3758 2187 3814 2195 3850 C 2202 3886 2216 3950 2224 3993 C 2244 4090 2267 4206 2285 4290 C 2292 4326 2305 4390 2314 4433 C 2323 4475 2336 4543 2344 4583 C 2352 4622 2362 4673 2365 4695 C 2376 4760 2390 4715 2406 4567 z" stroke-linecap="round" />
</g>
		<g transform="matrix(0.13 0 0 -0.13 -76.31 -7.7)" id="5zSBhYFHaieZ86BZnvjPq"  >
<path style="stroke: none; stroke-width: 1; stroke-dasharray: none; stroke-linecap: butt; stroke-dashoffset: 0; stroke-linejoin: miter; stroke-miterlimit: 4; fill: rgb(0,0,0); fill-rule: nonzero; opacity: 1;" vector-effect="non-scaling-stroke"  transform=" translate(-4607.66, -3752.72)" d="M 4797 5092 C 4770 5063 4774 4932 4815 4355 C 4837 4055 4836 3914 4810 3872 C 4782 3827 4756 3820 4622 3821 C 4474 3822 4391 3832 4379 3851 C 4373 3859 4370 4086 4371 4425 C 4373 4981 4373 4985 4352 5027 C 4319 5090 4272 5094 4240 5036 C 4229 5014 4229 4962 4238 4708 C 4252 4359 4252 4286 4251 3272 C 4250 2522 4250 2520 4272 2476 C 4304 2409 4350 2403 4385 2462 C 4402 2492 4403 2505 4389 2769 C 4374 3073 4370 3713 4383 3727 C 4395 3738 4502 3733 4537 3719 C 4552 3713 4616 3707 4679 3705 C 4767 3702 4797 3697 4809 3685 C 4823 3672 4825 3629 4828 3382 C 4833 2818 4845 2441 4858 2428 C 4875 2411 4972 2388 4982 2398 C 4993 2409 4952 4105 4930 4535 C 4925 4640 4921 4807 4920 4907 C 4920 5077 4919 5090 4901 5100 C 4870 5116 4815 5112 4797 5092 z" stroke-linecap="round" />
</g>
		<g transform="matrix(0.13 0 0 -0.13 207.73 -4.9)" id="1TW2-kftDlKd6L7LFPbNW"  >
<path style="stroke: none; stroke-width: 1; stroke-dasharray: none; stroke-linecap: butt; stroke-dashoffset: 0; stroke-linejoin: miter; stroke-miterlimit: 4; fill: rgb(0,0,0); fill-rule: nonzero; opacity: 1;" vector-effect="non-scaling-stroke"  transform=" translate(-6738, -3731.72)" d="M 6448 5103 C 6439 5101 6421 5082 6408 5062 L 6386 5026 L 6388 4550 C 6389 4289 6395 3983 6400 3870 C 6406 3757 6415 3496 6420 3290 C 6433 2797 6450 2407 6458 2398 C 6462 2394 6477 2388 6491 2385 C 6511 2380 6523 2384 6540 2402 C 6560 2423 6561 2432 6556 2490 C 6552 2526 6545 2636 6540 2735 C 6535 2834 6527 2978 6521 3055 C 6504 3295 6496 3754 6509 3778 C 6524 3807 6583 3817 6614 3797 C 6651 3772 6686 3665 6734 3430 C 6759 3309 6772 3239 6781 3175 C 6786 3142 6794 3097 6799 3075 C 6804 3053 6816 2992 6825 2940 C 6851 2794 6906 2556 6921 2528 C 6926 2518 6930 2505 6930 2499 C 6930 2480 6977 2385 6993 2372 C 7010 2357 7061 2353 7079 2364 C 7099 2377 7091 2448 7061 2512 C 7030 2580 7008 2646 6990 2725 C 6984 2753 6973 2800 6965 2830 C 6958 2860 6947 2905 6941 2930 C 6935 2955 6926 2991 6920 3010 C 6915 3029 6894 3113 6875 3195 C 6856 3278 6836 3359 6831 3375 C 6825 3392 6818 3423 6814 3445 C 6811 3467 6802 3505 6795 3530 C 6788 3555 6774 3611 6764 3655 C 6755 3699 6741 3754 6733 3778 C 6711 3851 6716 3879 6778 4001 C 6899 4237 6930 4353 6930 4565 C 6930 4734 6908 4859 6867 4923 C 6826 4986 6811 4999 6739 5038 C 6661 5080 6500 5116 6448 5103 z M 6680 4967 C 6741 4929 6766 4891 6794 4788 C 6818 4704 6815 4471 6790 4355 C 6766 4245 6745 4166 6728 4120 C 6688 4012 6600 3917 6545 3922 L 6515 3925 L 6507 4410 C 6502 4677 6502 4914 6505 4938 C 6510 4969 6517 4984 6533 4990 C 6565 5003 6639 4991 6680 4967 z" stroke-linecap="round" />
</g>
		<g transform="matrix(0.13 0 0 -0.13 399.2 -86.82)" id="e2xmKlsNG8sBLTvVMhNHo"  >
<path style="stroke: none; stroke-width: 1; stroke-dasharray: none; stroke-linecap: butt; stroke-dashoffset: 0; stroke-linejoin: miter; stroke-miterlimit: 4; fill: rgb(0,0,0); fill-rule: nonzero; opacity: 1;" vector-effect="non-scaling-stroke"  transform=" translate(-8174.03, -4346.16)" d="M 7977 5103 C 7961 5087 7973 5022 8004 4956 C 8043 4875 8119 4682 8145 4600 C 8155 4570 8166 4538 8170 4530 C 8174 4521 8181 4499 8184 4480 C 8188 4461 8197 4427 8205 4405 C 8253 4259 8305 3935 8316 3723 C 8322 3587 8328 3572 8366 3587 C 8402 3601 8352 4101 8294 4306 C 8286 4334 8280 4364 8280 4373 C 8280 4382 8273 4411 8265 4437 C 8257 4463 8243 4510 8234 4540 C 8212 4614 8184 4700 8172 4730 C 8166 4744 8152 4780 8140 4810 C 8116 4874 8113 4879 8066 4983 C 8046 5027 8030 5065 8030 5069 C 8030 5077 7997 5110 7988 5110 C 7986 5110 7980 5107 7977 5103 z" stroke-linecap="round" />
</g>
		<g transform="matrix(0.13 0 0 -0.13 -226.1 -9.75)" id="Ac0hZF3LJ5fCqcKR4s5Mw"  >
<path style="stroke: none; stroke-width: 1; stroke-dasharray: none; stroke-linecap: butt; stroke-dashoffset: 0; stroke-linejoin: miter; stroke-miterlimit: 4; fill: rgb(0,0,0); fill-rule: nonzero; opacity: 1;" vector-effect="non-scaling-stroke"  transform=" translate(-3484.26, -3768.14)" d="M 3128 5079 C 3118 5074 3110 5059 3110 5046 C 3110 5011 3165 4991 3297 4980 C 3360 4974 3416 4968 3420 4965 C 3430 4959 3438 4861 3455 4525 C 3470 4221 3484 4004 3501 3785 C 3516 3599 3541 3037 3549 2722 C 3554 2513 3558 2468 3570 2460 C 3595 2444 3628 2449 3651 2473 C 3672 2494 3672 2500 3667 2720 C 3664 2844 3657 3017 3651 3105 C 3630 3406 3585 3977 3564 4211 C 3548 4386 3539 4920 3551 4950 C 3557 4963 3575 4964 3679 4956 C 3815 4946 3845 4953 3856 4996 C 3867 5039 3844 5051 3744 5054 C 3695 5056 3597 5062 3525 5068 C 3308 5086 3147 5091 3128 5079 z" stroke-linecap="round" />
</g>
		<g transform="matrix(0.13 0 0 -0.13 72.79 -2.53)" id="9oP4hLKPeN36QHfViJxqL"  >
<path style="stroke: none; stroke-width: 1; stroke-dasharray: none; stroke-linecap: butt; stroke-dashoffset: 0; stroke-linejoin: miter; stroke-miterlimit: 4; fill: rgb(0,0,0); fill-rule: nonzero; opacity: 1;" vector-effect="non-scaling-stroke"  transform=" translate(-5725.89, -3713.98)" d="M 5481 5044 C 5463 5029 5448 5005 5444 4985 C 5441 4966 5443 4839 5449 4703 C 5456 4530 5457 4367 5450 4165 C 5444 4006 5440 3639 5441 3350 C 5443 2727 5443 2734 5439 2552 L 5435 2408 L 5464 2383 L 5493 2358 L 5714 2362 C 5907 2365 5940 2368 5972 2385 C 6020 2409 6029 2435 6001 2464 C 5981 2484 5969 2485 5822 2485 C 5688 2485 5661 2488 5639 2503 C 5575 2546 5568 2626 5569 3292 C 5570 3759 5573 3857 5584 3869 C 5596 3880 5609 3880 5667 3869 C 5704 3862 5744 3850 5755 3843 C 5766 3836 5793 3830 5815 3830 C 5873 3830 5900 3860 5900 3923 C 5900 3967 5898 3971 5863 3986 C 5834 3999 5798 4003 5714 4002 C 5633 4001 5598 4004 5584 4015 C 5566 4028 5565 4045 5568 4467 C 5572 4963 5567 4937 5650 4925 C 5675 4922 5709 4915 5725 4910 C 5921 4851 5918 4851 5959 4886 C 6037 4952 5964 4998 5726 5034 C 5666 5043 5609 5055 5599 5060 C 5566 5078 5513 5071 5481 5044 z" stroke-linecap="round" />
</g>
		<g transform="matrix(0.13 0 0 -0.13 -19.41 336.36)" id="xXEGb2eqoY64yhWIlJ-Ld"  >
<path style="stroke: none; stroke-width: 1; stroke-dasharray: none; stroke-linecap: butt; stroke-dashoffset: 0; stroke-linejoin: miter; stroke-miterlimit: 4; fill: rgb(0,0,0); fill-rule: nonzero; opacity: 1;" vector-effect="non-scaling-stroke"  transform=" translate(-5034.42, -1172.3)" d="M 8117 2193 C 8109 2183 8098 2163 8095 2147 C 8091 2132 8075 2106 8059 2089 C 8043 2072 8030 2052 8030 2044 C 8030 2021 8012 2028 8008 2052 C 8003 2090 7984 2082 7956 2028 C 7941 1999 7919 1959 7908 1940 C 7897 1921 7876 1883 7861 1857 C 7834 1807 7833 1805 7786 1725 C 7743 1651 7677 1567 7576 1455 C 7475 1344 7472 1342 7369 1249 C 7240 1133 7152 1062 7060 1000 C 7048 992 7032 980 7026 975 C 7020 969 6986 947 6950 925 C 6914 904 6883 884 6880 881 C 6875 875 6826 848 6755 811 C 6739 802 6723 792 6720 789 C 6715 783 6533 695 6460 662 C 6441 654 6413 641 6398 633 C 6384 626 6364 620 6353 620 C 6343 620 6326 613 6316 605 C 6305 597 6287 590 6275 590 C 6263 590 6250 586 6245 582 C 6236 574 6199 562 6040 515 C 5716 419 5330 378 4953 399 C 4844 406 4730 416 4700 422 C 4670 428 4618 436 4585 440 C 4440 458 4276 499 4035 576 C 3902 619 3845 639 3775 670 C 3764 675 3733 689 3705 701 C 3460 807 3103 1023 2922 1173 C 2703 1357 2504 1558 2386 1714 C 2339 1776 2295 1833 2288 1841 C 2280 1849 2257 1884 2235 1920 C 2214 1956 2186 1999 2174 2015 C 2162 2032 2134 2079 2112 2120 C 2070 2198 2067 2200 2014 2180 C 1984 2168 1984 2146 2015 2095 C 2029 2073 2043 2048 2047 2040 C 2050 2032 2086 1976 2126 1915 C 2470 1398 2922 998 3476 720 C 3592 662 3714 607 3800 575 C 3825 566 3860 552 3878 544 C 3896 536 3917 530 3925 530 C 3933 530 3954 524 3972 516 C 4003 503 4044 491 4173 456 C 4272 429 4315 420 4376 410 C 4410 405 4450 396 4464 390 C 4479 385 4510 380 4533 380 C 4556 380 4602 373 4635 365 C 4668 357 4724 351 4760 350 C 4796 350 4893 345 4975 339 C 5241 319 5713 362 5995 430 C 6109 458 6252 498 6300 516 C 6319 523 6366 539 6403 551 C 6440 563 6473 577 6476 581 C 6479 586 6494 590 6509 590 C 6525 590 6543 597 6550 605 C 6564 622 6596 625 6605 610 C 6608 604 6603 597 6593 594 C 6583 591 6568 584 6560 579 C 6552 574 6535 566 6523 560 C 6510 555 6500 546 6500 540 C 6500 535 6489 530 6476 530 C 6463 530 6447 523 6440 515 C 6433 507 6420 500 6411 500 C 6402 500 6386 494 6375 486 C 6364 479 6343 470 6328 466 C 6312 463 6300 455 6300 450 C 6300 444 6293 440 6284 440 C 6269 440 6246 431 6165 395 C 6149 388 6126 379 6115 377 C 6104 374 6064 360 6025 347 C 5987 333 5939 319 5920 315 C 5901 311 5881 305 5875 301 C 5857 290 5651 245 5530 225 C 5483 218 5434 209 5420 206 C 5406 202 5296 194 5175 186 C 4723 159 4300 215 3865 358 C 3778 387 3751 397 3683 426 C 3666 434 3649 440 3646 440 C 3630 440 3347 578 3280 619 C 3261 630 3236 644 3225 649 C 3200 661 3087 733 3002 791 C 2800 929 2518 1183 2364 1365 C 2164 1600 2042 1785 1898 2073 C 1866 2137 1855 2150 1835 2150 C 1822 2150 1808 2145 1805 2139 C 1793 2120 1989 1747 2044 1683 C 2050 1676 2075 1641 2100 1604 C 2350 1235 2715 889 3104 653 C 3274 549 3397 486 3605 396 C 3622 389 3652 375 3673 366 C 3694 357 3715 350 3721 350 C 3727 350 3746 344 3763 336 C 3810 316 3877 295 4050 245 C 4128 223 4288 190 4415 171 C 4617 139 4682 135 4935 135 C 5188 135 5253 139 5455 171 C 5579 190 5701 215 5790 240 C 5914 274 5978 293 5995 300 C 6020 312 6099 340 6125 347 C 6136 349 6159 358 6175 365 C 6192 372 6223 386 6245 395 C 6267 405 6292 417 6300 422 C 6308 426 6322 433 6330 436 C 6353 444 6413 471 6430 481 C 6438 485 6481 507 6525 530 C 6569 552 6619 580 6635 591 C 6652 601 6677 616 6693 622 C 6708 629 6720 638 6720 642 C 6720 646 6724 650 6729 650 C 6734 650 6842 720 6969 805 C 7244 989 7264 1003 7268 1013 C 7270 1017 7277 1020 7284 1020 C 7290 1020 7303 1028 7311 1038 C 7320 1047 7337 1062 7350 1070 C 7362 1078 7378 1090 7384 1095 C 7390 1101 7420 1125 7450 1149 C 7594 1262 7817 1480 7915 1605 C 7937 1633 7958 1657 7963 1658 C 7967 1660 7970 1668 7970 1676 C 7970 1684 7974 1690 7978 1690 C 7993 1690 8184 1955 8220 2025 C 8226 2036 8239 2060 8250 2078 C 8269 2109 8269 2110 8251 2110 C 8234 2110 8216 2090 8185 2038 C 8112 1915 7991 1740 7938 1681 C 7920 1660 7876 1610 7841 1569 C 7763 1480 7554 1271 7486 1215 C 7459 1193 7432 1171 7426 1165 C 7390 1134 7348 1110 7339 1115 C 7334 1119 7350 1143 7377 1169 C 7446 1238 7529 1328 7575 1385 C 7597 1413 7626 1446 7640 1460 C 7654 1474 7676 1500 7689 1518 C 7702 1536 7750 1597 7796 1653 C 7843 1709 7906 1793 7938 1839 C 7969 1885 8012 1948 8032 1979 C 8053 2009 8077 2050 8086 2069 C 8095 2089 8106 2107 8110 2110 C 8114 2113 8125 2129 8134 2147 C 8161 2201 8151 2230 8117 2193 z M 7325 1101 C 7328 1096 7326 1089 7320 1085 C 7315 1082 7310 1086 7310 1094 C 7310 1112 7316 1115 7325 1101 z M 7235 1059 C 7231 1054 7225 1050 7220 1050 C 7215 1050 7195 1035 7176 1018 C 7086 932 6951 836 6855 789 C 6828 776 6803 762 6800 758 C 6797 755 6782 748 6767 745 C 6752 741 6740 734 6740 729 C 6740 725 6724 718 6705 714 C 6686 711 6670 704 6670 699 C 6670 694 6657 690 6640 690 C 6624 690 6610 695 6610 700 C 6610 706 6624 710 6640 710 C 6660 710 6670 715 6670 725 C 6670 733 6678 740 6688 740 C 6699 740 6717 749 6730 760 C 6743 771 6759 780 6767 780 C 6774 780 6780 785 6780 790 C 6780 796 6786 800 6793 800 C 6800 800 6829 816 6859 835 C 6888 854 6914 870 6916 870 C 6921 870 6980 910 6990 920 C 6998 928 7034 949 7055 959 C 7066 964 7088 980 7103 994 C 7118 1008 7135 1020 7140 1020 C 7144 1020 7150 1023 7152 1028 C 7157 1041 7224 1079 7232 1074 C 7237 1071 7238 1064 7235 1059 z M 6600 670 C 6600 665 6589 660 6575 660 C 6561 660 6550 665 6550 670 C 6550 676 6561 680 6575 680 C 6589 680 6600 676 6600 670 z M 6530 634 C 6530 632 6521 630 6510 630 C 6499 630 6490 634 6490 639 C 6490 644 6499 646 6510 643 C 6521 640 6530 636 6530 634 z M 6655 640 C 6658 634 6651 630 6638 630 C 6620 630 6618 632 6630 640 C 6649 652 6648 652 6655 640 z" stroke-linecap="round" />
</g>
</g>
</g>
</svg>